<svg xmlns="http://www.w3.org/2000/svg" width="18" height="18" viewBox="0 0 48 48">
  <defs></defs>
  <path fill="#4285F4" d="M24 9.5c3.9 0 6.6 1.7 8.1 3.1l6-5.9C34.6 3.6 29.7 1.5 24 1.5 14.8 1.5 7.2 7.7 4.3 15.8l7.6 5.9C13.7 15 18 9.5 24 9.5z"/>
  <path fill="#34A853" d="M46.5 24c0-1.6-.1-3.1-.4-4.6H24v9.1h12.7c-.5 2.7-2 5-4.4 6.6l7 5.5C44.5 36.2 46.5 30.6 46.5 24z"/>
  <path fill="#FBBC05" d="M11.9 28.1A14.9 14.9 0 0 1 11.5 24c0-1.3.2-2.6.6-3.8l-7.6-5.9C3 14.8 1.5 19.1 1.5 24s1.5 9.2 3.0 13.7l7.4-5.6z"/>
  <path fill="#EA4335" d="M24 46.5c6.3 0 11.6-2.1 15.4-5.8l-7.4-5.6c-2 1.4-4.6 2.4-8 2.4-6 0-10.3-5.5-11.6-10.2l-7.6 5.9C7.2 40.3 14.8 46.5 24 46.5z"/>
</svg>